# xmcd
#
# Track frame offsets: 
#        150
#        25998
#        47963
#        64633
#        85948
#        108518
#        129298
#        148938
#        167658
#        188162
#        208892
#        229000
#        247002
#        265503
#
# Disc length: 3800 seconds
#
# Revision: 3
# Processed by: cddbd v1.5.2PL0 Copyright (c) Steve Scherf et al.
# Submitted via: ExactAudioCopyFreeDBPlugin 1.0
#
DISCID=c70ed60e
DTITLE=園田海未(三森すずこ) - 蒼の神話
DYEAR=2014
DGENRE=LoveLive
TTITLE0=もぎゅっと"love"で接近中！ (UMI Mix)
TTITLE1=愛してるばんざーい！ (UMI Mix)
TTITLE2=soldier game (UMI Mix)
TTITLE3=Wonderful Rush (UMI Mix)
TTITLE4=Oh, Love&Peace! (UMI Mix)
TTITLE5=僕らは今のなかで (UMI Mix)
TTITLE6=WILD STARS (UMI Mix)
TTITLE7=きっと青春が聞こえる (UMI Mix)
TTITLE8=輝夜の城で踊りたい (UMI Mix)
TTITLE9=ススメ→トゥモロウ (UMI Mix)
TTITLE10=これからのSomeday (UMI Mix)
TTITLE11=Wonder zone (UMI Mix)
TTITLE12=No brand girls (UMI Mix)
TTITLE13=START:DASH!! (UMI Mix)
EXTD=
EXTT0=
EXTT1=
EXTT2=
EXTT3=
EXTT4=
EXTT5=
EXTT6=
EXTT7=
EXTT8=
EXTT9=
EXTT10=
EXTT11=
EXTT12=
EXTT13=
PLAYORDER=
